<svg width="128" height="128" viewBox="0 0 128 128" fill="none" xmlns="http://www.w3.org/2000/svg">
  <!-- Background circle -->
  <circle cx="64" cy="64" r="60" fill="#2c5aa0" stroke="#1e3d6f" stroke-width="2"/>
  
  <!-- Table/spreadsheet icon -->
  <rect x="32" y="28" width="64" height="48" rx="4" fill="white" stroke="#2c5aa0" stroke-width="2"/>
  
  <!-- Table grid lines -->
  <line x1="32" y1="40" x2="96" y2="40" stroke="#2c5aa0" stroke-width="1.5"/>
  <line x1="32" y1="52" x2="96" y2="52" stroke="#2c5aa0" stroke-width="1"/>
  <line x1="32" y1="64" x2="96" y2="64" stroke="#2c5aa0" stroke-width="1"/>
  
  <line x1="48" y1="28" x2="48" y2="76" stroke="#2c5aa0" stroke-width="1"/>
  <line x1="64" y1="28" x2="64" y2="76" stroke="#2c5aa0" stroke-width="1"/>
  <line x1="80" y1="28" x2="80" y2="76" stroke="#2c5aa0" stroke-width="1"/>
  
  <!-- Download arrow -->
  <circle cx="64" cy="92" r="16" fill="#28a745" stroke="#1e7e34" stroke-width="2"/>
  <path d="M64 84 L64 100 M58 94 L64 100 L70 94" stroke="white" stroke-width="3" stroke-linecap="round" stroke-linejoin="round" fill="none"/>
  
  <!-- Small data dots to represent table content -->
  <circle cx="40" cy="46" r="1.5" fill="#2c5aa0"/>
  <circle cx="56" cy="46" r="1.5" fill="#2c5aa0"/>
  <circle cx="72" cy="46" r="1.5" fill="#2c5aa0"/>
  <circle cx="88" cy="46" r="1.5" fill="#2c5aa0"/>
  
  <circle cx="40" cy="58" r="1.5" fill="#2c5aa0"/>
  <circle cx="56" cy="58" r="1.5" fill="#2c5aa0"/>
  <circle cx="72" cy="58" r="1.5" fill="#2c5aa0"/>
  <circle cx="88" cy="58" r="1.5" fill="#2c5aa0"/>
  
  <circle cx="40" cy="70" r="1.5" fill="#2c5aa0"/>
  <circle cx="56" cy="70" r="1.5" fill="#2c5aa0"/>
  <circle cx="72" cy="70" r="1.5" fill="#2c5aa0"/>
  <circle cx="88" cy="70" r="1.5" fill="#2c5aa0"/>
</svg>
